<svg width="20" height="20" viewBox="0 0 20 20" fill="none" xmlns="http://www.w3.org/2000/svg">
<path d="M12.834 2.49981V2.99981H13.334H15.0011C15.5917 2.99981 16.1681 3.55889 16.1681 4.37467V9.3743V9.72083L16.4926 9.84248L18.0346 10.4206C18.2411 10.498 18.402 10.6983 18.4539 10.971C18.5056 11.243 18.4342 11.5214 18.2516 11.7085L18.2506 11.7096L14.783 15.2851C14.292 15.5952 13.7628 15.7644 13.334 15.7644C12.7941 15.7644 12.1631 15.5214 11.5852 15.077C10.6369 14.3307 9.35868 14.3309 8.41056 15.0776C7.8721 15.4951 7.25204 15.7644 6.66248 15.7644C6.23371 15.7644 5.70448 15.5952 5.21351 15.2851L1.74597 11.7096L1.74594 11.7096C1.56194 11.5199 1.49107 11.2405 1.54264 10.9697C1.59432 10.6982 1.75471 10.4984 1.9616 10.4207C1.96163 10.4207 1.96166 10.4207 1.96169 10.4207C1.96177 10.4206 1.96186 10.4206 1.96195 10.4206L3.50708 9.84261L3.8319 9.72111V9.3743V4.37467C3.8319 3.55889 4.40834 2.99981 4.99893 2.99981H6.66595H7.16595V2.49981V1.24991C7.16595 0.777847 7.49234 0.5 7.7773 0.5H12.2227C12.5077 0.5 12.834 0.777847 12.834 1.24991V2.49981ZM5.0546 8.54233V9.26352L5.72998 9.01056L9.47384 7.60833L9.47515 7.60783C9.81581 7.47915 10.1838 7.47867 10.5295 7.60827L14.2699 9.01051L14.9454 9.26376V8.54233V4.99963V4.49963H14.4454H5.5546H5.0546V4.99963V8.54233ZM10.33 16.8696L10.33 16.8696L10.3363 16.8745C11.1786 17.5271 12.2385 17.9987 13.334 17.9987C14.4075 17.9987 15.5027 17.5203 16.3302 16.8731L16.3302 16.8731L16.3353 16.869C16.5498 16.6967 16.83 16.7068 17.0368 16.9059L17.0367 16.9059L17.0431 16.9119C17.5989 17.4284 18.2997 17.8272 19.0146 18.0137C19.311 18.0915 19.5758 18.4711 19.4812 18.9286C19.3892 19.3736 19.0339 19.5502 18.7638 19.4796C17.9925 19.2778 17.3402 18.8916 16.9078 18.5809L16.6397 18.3881L16.3572 18.5591C15.4039 19.1358 14.3643 19.4985 13.334 19.4985C12.3384 19.4985 11.4241 19.1495 10.7716 18.8162C10.5763 18.7139 10.402 18.6176 10.2572 18.5307L10 18.3765L9.74281 18.5307C9.59005 18.6224 9.42299 18.7197 9.23618 18.8123L9.23617 18.8122L9.23063 18.8151C8.57804 19.1487 7.66274 19.4985 6.66595 19.4985C5.6356 19.4985 4.59558 19.1357 3.6416 18.5622L3.36226 18.3943L3.09589 18.5821C2.65481 18.8931 2.0058 19.2822 1.23616 19.4835C0.966089 19.5541 0.61077 19.3775 0.518754 18.9325C0.424161 18.475 0.688968 18.0954 0.98541 18.0176C1.70027 17.8311 2.40112 17.4323 2.95687 16.9158L2.95689 16.9158L2.96131 16.9116C3.16855 16.7142 3.45159 16.7037 3.66699 16.8747L3.66697 16.8748L3.67195 16.8786C4.50117 17.5201 5.59219 17.9987 6.66595 17.9987C7.76147 17.9987 8.82135 17.5271 9.66373 16.8745L9.66377 16.8745L9.66996 16.8696C9.87281 16.7072 10.1272 16.7072 10.33 16.8696Z" fill="#C1FFB7" stroke="#7ECF57"/>
</svg>
